<svg xmlns="http://www.w3.org/2000/svg" viewBox="0 0 112.14 182.12"><defs><style>.cls-1{fill:#ffde00;}.cls-2{fill:#ea5b0c;}</style></defs><title>hyppocampe</title><g id="Calque_2" data-name="Calque 2"><g id="Calque_1-2" data-name="Calque 1"><path class="cls-1" d="M43.89,160.81a9.73,9.73,0,0,1-6.75-9.63s-.1-5.5,6-8.39c0,0,8-2.82,14.15,5.48,0,0,5.73,6.16,0,16.29,0,0-4.85,8-14.49,9,0,0-14.13,2.48-20.25-13.1a19.8,19.8,0,0,1,5.37-20.08,21.78,21.78,0,0,1,6.77-3.95s10.85,2,19.65-1.56c0,0,21.87-5.74,27.24-31.2,0,0,5.7-22.54-14.59-39.53,0,0-4.69-4.43-13.87-7.3,0,0-4.15-.82-4-6.43,0,0,1-4.83,7.32-4.2,0,0,11,2.2,25.51-6.85,0,0,11.07-9.13,30.22-4.92,0,0-9.64-5.51-2.68-17.76,0,0-7.24,7.44-21.77,8.13,0,0-13.56,1.52-26.13-9.43,0,0-5.68-5.5-8.13-9.94,0,0-8.74-10.83-21.89-1.92,0,0,6.23.16,5.82,7,0,0-1.5,6.56-8.18,4.35,0,0-7-3.23-14.91,3.06a17.29,17.29,0,0,0-4,5.42S15.55,21.3,18.17,27A6,6,0,0,1,15,34.25S4.14,38.71,6.59,51.59A5.86,5.86,0,0,1,13,49.83a6.61,6.61,0,0,1,3.35,3s1.77,10.94,9.92,17.58a31.2,31.2,0,0,1,4,5.34s-8.34,6.87-17.72-1.83c0,0-2-2.24-4.38-1.7,0,0-2.58.07-4.61,4.31,0,0-13.4,23.2,12.22,37.66,0,0,2.73,1.09,4.55-.66a4.91,4.91,0,0,0,1.88-4.37S23.76,97,36.42,97.39c0,0,1.1,8.86-5.8,21,0,0-3.91,6.19-6.86,8.66,0,0-13.17,8.47-13.36,25,0,0,0,23.73,23.63,29.23,0,0,24.71,6.94,31.17-19.35,0,0,2.2-14.55-9.41-22.4,0,0-7.67-4.91-16.47,1.15a12,12,0,0,0-4.76,13S36.82,160.51,43.89,160.81Z"/><path class="cls-2" d="M55.79,139.54s-7.67-4.91-16.47,1.15a12,12,0,0,0-4.76,13s2.26,6.83,9.33,7.13a9.73,9.73,0,0,1-6.75-9.63s-.1-5.5,6-8.39c0,0,8-2.82,14.15,5.48,0,0,5.73,6.16,0,16.29,0,0-4.85,8-14.49,9,0,0-14.13,2.48-20.25-13.1a19.8,19.8,0,0,1,5.37-20.08,21.78,21.78,0,0,1,6.77-3.95s10.85,2,19.65-1.56a28,28,0,0,0,3.8-1.43,70.41,70.41,0,0,1-2.83-75.85c-.7-.26-1.42-.51-2.19-.75,0,0-4.15-.82-4-6.43,0,0,1-4.83,7.32-4.2a24.6,24.6,0,0,0,7.26,0A70.27,70.27,0,0,1,107,23.5a18.31,18.31,0,0,1,2.43-6.82s-7.24,7.44-21.77,8.13c0,0-13.56,1.52-26.13-9.43,0,0-5.68-5.5-8.13-9.94,0,0-8.74-10.83-21.89-1.92,0,0,6.23.16,5.82,7,0,0-1.5,6.56-8.18,4.35,0,0-7-3.23-14.91,3.06a17.29,17.29,0,0,0-4,5.42S15.55,21.3,18.17,27A6,6,0,0,1,15,34.25S4.14,38.71,6.59,51.59A5.86,5.86,0,0,1,13,49.83a6.61,6.61,0,0,1,3.35,3s1.77,10.94,9.92,17.58a31.2,31.2,0,0,1,4,5.34s-8.34,6.87-17.72-1.83c0,0-2-2.24-4.38-1.7,0,0-2.58.07-4.61,4.31,0,0-13.4,23.2,12.22,37.66,0,0,2.73,1.09,4.55-.66a4.91,4.91,0,0,0,1.88-4.37S23.76,97,36.42,97.39c0,0,1.1,8.86-5.8,21,0,0-3.91,6.19-6.86,8.66,0,0-13.17,8.47-13.36,25,0,0,0,23.73,23.63,29.23,0,0,24.71,6.94,31.17-19.35C65.2,161.94,67.4,147.39,55.79,139.54Z"/></g></g></svg>