<svg xmlns="http://www.w3.org/2000/svg" viewBox="0 0 90.78 185.95"><defs><style>.cls-1{fill:#d60b52;}.cls-2{fill:#e6007e;}</style></defs><title>meduse</title><g id="Calque_2" data-name="Calque 2"><g id="Calque_1-2" data-name="Calque 1"><path class="cls-1" d="M81.73,179.24a12.6,12.6,0,0,1-1.17-5.9A13.66,13.66,0,0,1,83,166.16c1.44-2.16,3.54-3.74,4.86-6a22.78,22.78,0,0,0,2.91-12A20.73,20.73,0,0,0,89,141.06a20.08,20.08,0,0,0-5.43-7.45c-1.86-1.58-4-2.69-5.9-4.24a27.62,27.62,0,0,1-2.27-2.05c-2.55-2.59-4.8-6.53-5-10.28a28.75,28.75,0,0,1,.52-9,19.62,19.62,0,0,1,5.65-9.6A46.36,46.36,0,0,1,81,95.27a28.41,28.41,0,0,0,2.4-2.12,24,24,0,0,0,2.17-2.34,19,19,0,0,0,3.54-8.47,23.45,23.45,0,0,0,.39-3.82c.27-9.24-6.4-15.08-6.4-15.08,1.69-2.25,1.17-5.89,1.17-5.89a10.18,10.18,0,0,0-7.21-8.49C82.46,36.19,77,23.17,77,23.17,66-2.75,40.11.09,40.11.09,18,2.1,10,21.73,10,21.73,2.4,38.5,11.09,53.12,11.09,53.12a10.45,10.45,0,0,0-3.5,4.06c-2.2,3.63-.22,7.94-.22,7.94A19.1,19.1,0,0,0,3.23,73a21.26,21.26,0,0,0-.34,9.39,22.81,22.81,0,0,0,1.78,5.28A23.74,23.74,0,0,0,9.05,94c1.58,1.61,3.49,2.82,5.15,4.35a20.27,20.27,0,0,1,4.4,6,21,21,0,0,1,1.16,15.27,29.36,29.36,0,0,1-2,4.42,20.67,20.67,0,0,1-4.07,5,60.48,60.48,0,0,1-5.16,3.48,22.51,22.51,0,0,0-5.93,6.73C-1.74,146.53.66,154.72.66,154.72a24.12,24.12,0,0,0,1.21,3.4,24.93,24.93,0,0,0,2.81,4.57,41,41,0,0,1,3.18,4.23,13.15,13.15,0,0,1,1.34,7.9C8.31,182.3.51,185.06.51,185.06a13,13,0,0,0,13.06-8.62,12.52,12.52,0,0,0,.75-5.35,13.62,13.62,0,0,0-2.38-6.2,45.1,45.1,0,0,1-4.76-7.58A20.79,20.79,0,0,1,7.85,140a28.51,28.51,0,0,1,2.58-3.92c2.78-3.31,6.65-4.87,9.72-7.78a22,22,0,0,0,5.19-8.49c2.25-6.15.09-12.52.09-12.52-1.6-5.82-6.51-9.9-6.51-9.9A25.85,25.85,0,0,1,9.57,86a21.24,21.24,0,0,1,.82-16.85,10,10,0,0,0,7.32,2.12c3.9-.18,7.06-3.79,7.06-3.79l1.12.63a7.57,7.57,0,0,0,.14,1.2,19.15,19.15,0,0,0-6.58,16A18.69,18.69,0,0,0,27,98.76,25.41,25.41,0,0,1,34,106a18.06,18.06,0,0,1,1.88,14.52A17.35,17.35,0,0,1,34,124.74a20.23,20.23,0,0,1-4,4.78c-1.81,1.58-4,2.67-5.66,4.41a19.33,19.33,0,0,0-5.14,14.88,23.25,23.25,0,0,0,1.1,4.44,19.82,19.82,0,0,0,2.55,5.05c1,1.4,2.43,2.48,3.41,3.9a11.62,11.62,0,0,1,1.85,6.94,11.16,11.16,0,0,1-7.46,10.09c9.56-.24,11.29-7.91,11.29-7.91a12,12,0,0,0-2.81-11.85,23.14,23.14,0,0,1-3.88-6.39,18.49,18.49,0,0,1,1.55-15.93,18.7,18.7,0,0,1,3.88-4.62c1.21-1,2.69-1.54,3.93-2.5a18.19,18.19,0,0,0,4.48-5.38,18,18,0,0,0,.79-17.21,31.83,31.83,0,0,0-2-3.47c-2.47-3.28-6-5.24-8.77-8.23a18.1,18.1,0,0,1-4.22-8.3,19.38,19.38,0,0,1,2.75-14.35c2.49,4.23,8,4.37,8,4.37a9.9,9.9,0,0,0,9-5,4.86,4.86,0,0,0,3-.15,10,10,0,0,0,8.28,4.42,8.83,8.83,0,0,0,7.58-3.5,20.89,20.89,0,0,1,2,4,18.5,18.5,0,0,1-.6,14.13A21.7,21.7,0,0,1,58.14,99c-4,2.43-6.75,7.57-6.75,7.57a19,19,0,0,0-1.47,13.68,18.85,18.85,0,0,0,6.29,9.56c1.73,1.4,3.73,2.42,5.32,4a18.5,18.5,0,0,1,5.13,14.22c-.21,6.3-4.58,11-4.58,11a12.51,12.51,0,0,0-3.57,10.53c2.47,10.33,11.72,9.63,11.72,9.63-5.47-2.35-6.67-6.48-6.67-6.48a11.59,11.59,0,0,1,2.59-12.5,20.55,20.55,0,0,0,3-3.83A18.74,18.74,0,0,0,69.5,138a20.1,20.1,0,0,0-2-2.82c-2.35-2.64-5.55-4.16-7.9-6.72-.49-.54-1-1.09-1.41-1.66a17,17,0,0,1-3.42-7,19.63,19.63,0,0,1,1.65-13.07,26.35,26.35,0,0,1,6.62-7.45,28.56,28.56,0,0,0,3.34-2.82C73.52,89.46,71,79.5,71,79.5a18.21,18.21,0,0,0-5.76-9.77,9.84,9.84,0,0,0,.27-4.89l.7-.56C72.64,72.2,80,66.86,80,66.86A17.57,17.57,0,0,1,82.83,73a16.94,16.94,0,0,1,.65,8.53,23.48,23.48,0,0,1-5.73,11.08A22.8,22.8,0,0,1,75,95.34c-1.17.94-2.39,1.81-3.55,2.77a18.21,18.21,0,0,0-6.8,11.74,21,21,0,0,0-.25,4.34c.61,12.61,11.56,18,11.56,18a19,19,0,0,1,8.47,12c3.43,12.18-6,20.64-6,20.64-5.56,8.53-.88,15.15-.88,15.15,5.46,7.29,11.75,5.92,11.75,5.92C84.73,184.72,81.73,179.24,81.73,179.24Z"/><path class="cls-2" d="M66.15,160.26a20.55,20.55,0,0,0,3-3.83,18.66,18.66,0,0,0,1.54-15.76,91.85,91.85,0,0,1-21.36-27,18.39,18.39,0,0,0,2.53,11.12,18.87,18.87,0,0,0,4.35,5c1.73,1.4,3.73,2.42,5.32,4a18.5,18.5,0,0,1,5.13,14.22c-.21,6.3-4.58,11-4.58,11a12.51,12.51,0,0,0-3.57,10.53c2.47,10.33,11.72,9.63,11.72,9.63-5.47-2.35-6.67-6.48-6.67-6.48A11.59,11.59,0,0,1,66.15,160.26Z"/><path class="cls-2" d="M37.81,104c-2.47-3.28-6-5.24-8.77-8.23a18.1,18.1,0,0,1-4.22-8.3,19.38,19.38,0,0,1,2.75-14.35c2.49,4.23,8,4.37,8,4.37a10.47,10.47,0,0,0,3.62-.56C39,75.05,39,73.19,39,71.32a91.36,91.36,0,0,1,26-64A38.19,38.19,0,0,0,40.11.09C18,2.1,10,21.73,10,21.73,2.4,38.5,11.09,53.12,11.09,53.12a10.45,10.45,0,0,0-3.5,4.06c-2.2,3.63-.22,7.94-.22,7.94A19.1,19.1,0,0,0,3.23,73a21.26,21.26,0,0,0-.34,9.39,22.81,22.81,0,0,0,1.78,5.28A23.74,23.74,0,0,0,9.05,94c1.58,1.61,3.49,2.82,5.15,4.35a20.27,20.27,0,0,1,4.4,6,21,21,0,0,1,1.16,15.27,29.36,29.36,0,0,1-2,4.42,20.67,20.67,0,0,1-4.07,5,60.48,60.48,0,0,1-5.16,3.48,22.51,22.51,0,0,0-5.93,6.73C-1.74,146.53.66,154.72.66,154.72a24.12,24.12,0,0,0,1.21,3.4,24.93,24.93,0,0,0,2.81,4.57,41,41,0,0,1,3.18,4.23,13.15,13.15,0,0,1,1.34,7.9C8.31,182.3.51,185.06.51,185.06a13,13,0,0,0,13.06-8.62,12.52,12.52,0,0,0,.75-5.35,13.62,13.62,0,0,0-2.38-6.2,45.1,45.1,0,0,1-4.76-7.58A20.79,20.79,0,0,1,7.85,140a28.51,28.51,0,0,1,2.58-3.92c2.78-3.31,6.65-4.87,9.72-7.78a22,22,0,0,0,5.19-8.49c2.25-6.15.09-12.52.09-12.52-1.6-5.82-6.51-9.9-6.51-9.9A25.85,25.85,0,0,1,9.57,86a21.24,21.24,0,0,1,.82-16.85,10,10,0,0,0,7.32,2.12c3.9-.18,7.06-3.79,7.06-3.79l1.12.63a7.57,7.57,0,0,0,.14,1.2,19.15,19.15,0,0,0-6.58,16A18.69,18.69,0,0,0,27,98.76,25.41,25.41,0,0,1,34,106a18.06,18.06,0,0,1,1.88,14.52A17.35,17.35,0,0,1,34,124.74a20.23,20.23,0,0,1-4,4.78c-1.81,1.58-4,2.67-5.66,4.41a19.33,19.33,0,0,0-5.14,14.88,23.25,23.25,0,0,0,1.1,4.44,19.82,19.82,0,0,0,2.55,5.05c1,1.4,2.43,2.48,3.41,3.9a11.62,11.62,0,0,1,1.85,6.94,11.16,11.16,0,0,1-7.46,10.09c9.56-.24,11.29-7.91,11.29-7.91a12,12,0,0,0-2.81-11.85,23.14,23.14,0,0,1-3.88-6.39,18.49,18.49,0,0,1,1.55-15.93,18.7,18.7,0,0,1,3.88-4.62c1.21-1,2.69-1.54,3.93-2.5a18.19,18.19,0,0,0,4.48-5.38,18,18,0,0,0,.79-17.21A31.83,31.83,0,0,0,37.81,104Z"/><path class="cls-2" d="M81.73,179.24a12.6,12.6,0,0,1-1.17-5.9A13.66,13.66,0,0,1,83,166.16c1.44-2.16,3.54-3.74,4.86-6a22.37,22.37,0,0,0,2.43-6.49c-1.74-.85-3.44-1.75-5.12-2.71a22.58,22.58,0,0,1-6.72,13.85c-5.56,8.53-.88,15.15-.88,15.15,5.46,7.29,11.75,5.92,11.75,5.92C84.73,184.72,81.73,179.24,81.73,179.24Z"/></g></g></svg>