<svg xmlns="http://www.w3.org/2000/svg" viewBox="0 0 243.38 186.8"><defs><style>.cls-1{fill:#542e60;}.cls-2{fill:#fff;}.cls-3{fill:#814997;}</style></defs><title>pieuvre</title><g id="Calque_2" data-name="Calque 2"><g id="Calque_1-2" data-name="Calque 1"><path class="cls-1" d="M121.38,0A44.59,44.59,0,0,0,88.22,16S77.07,27.43,78.51,47.47a43.76,43.76,0,0,0,23.08,34.68S97.93,91.05,85.2,94.9c0,0-20.69,5.55-30.2-15.31,0,0-1.92-2.74-1.87-13.58,0,0,2-21.22-19.46-24.93,0,0-18.68-2.77-24.36,16.18a24,24,0,0,1,18.42-6.07,18.63,18.63,0,0,1,5.64,1.68c4.05,1.8,7.9,4.44,10.2,8.32,3,5,3.6,10,3.29,15.74,0,0-1,15,11.32,21.93a25.9,25.9,0,0,0,13.08,3.08,14.51,14.51,0,0,1,6.16.8,11,11,0,0,1,4.84,4s-7.7,7.51-21.41,5.47c-6.66-1-12.54-5.53-16.28-11-2.75-4-5.17-7.85-9.26-10.69a19.9,19.9,0,0,0-9.57-3.63A22.55,22.55,0,0,0,2.47,98.75s-4.62,7-1.23,17.23c0,0,2.25-13.11,15.65-17,0,0,12-3.42,21.12,4.78,2.92,3.05,4.76,6.61,7.34,9.88A23.47,23.47,0,0,0,55.47,121,24.15,24.15,0,0,0,65,122.59s-5,8.31-4.15,24.26c.25,4.71-.13,9.6-2.83,13.67-3,4.57-8.68,6.79-13.88,4.37A11.83,11.83,0,0,1,40,161.42,16.23,16.23,0,0,1,38,158a19.48,19.48,0,0,0-17-12.82s-12.66-1.09-19,10.76c0,0,8.17-6,19.22-.79a19.32,19.32,0,0,1,10,12.33s3.68,7.49,11.35,9.58c0,0,12.69,4.24,21.1-6.63,0,0,4.71-4.69,4.5-13.85,0,0-1.37-11.35,2.14-20.2a53.93,53.93,0,0,1,2.84-6.07,41,41,0,0,1,10.06-12.66c2.9-2.33,6.54-5.12,10.06-6.42a5.57,5.57,0,0,1,6.75,2c.06.1-1.8,3-2,3.3a19.39,19.39,0,0,0-1.45,4,22.15,22.15,0,0,0-.29,8.47c.74,4.48,2.86,9.3,6.4,12.27,1.81,1.51,4,2.42,5.79,4a22.64,22.64,0,0,1,4.57,5.65,23.36,23.36,0,0,1,2.39,6.2,21,21,0,0,1-4.1,17.32s-10,13.27-26.3,5.9c0,0-7.57-3.57-9-6,0,0,9.61,15.77,30.05,10.3,0,0,10.08-3.55,13.82-11.77A27.6,27.6,0,0,0,141,186.77s11.35.76,19.12-6.7c0,0-12.85,7-23.25,1.88a21.15,21.15,0,0,1-9.82-29.51,21.53,21.53,0,0,1,8.15-8.21s7.91-6,9-14.21c0,0,1.93-10.18-4.79-17.52,0,0,.72-5.41,8.22-3.94,9.54,1.87,17.52,10.36,22.32,18.35a49,49,0,0,1,3.72,7.6,35.17,35.17,0,0,1,2.06,8.07s1.19,4.46,0,13.55a19.68,19.68,0,0,0,9,19.37,19.38,19.38,0,0,0,22.54-1.4s4.59-3.1,5.85-7.88c0,0,1.93-8,7-10.27a20.49,20.49,0,0,1,15.31-2.31s3.94,1,5.57,2.29c0,0-4.53-10.78-18.7-10.23,0,0-11.71.31-17.61,13.72,0,0-2.29,7.64-11.62,6.62-3.28-.36-6.29-3.29-7.77-6a18.76,18.76,0,0,1-2.47-7.26c-.23-3.93.76-7.9.69-11.86a48.44,48.44,0,0,0-1.67-12.62,28.58,28.58,0,0,0-3.11-7.2,23.67,23.67,0,0,0,21.15-11.65s4.91-10.81,16.41-12.54c0,0,11.87-2.39,20.32,6.93,0,0,5,5.08,5.41,10.67,0,0,6.4-15.08-8.76-25.92,0,0-12.7-9-26.91,1.65a36.83,36.83,0,0,0-6.82,8.54A25.77,25.77,0,0,1,161,105.24s2.95-5.19,10.3-4.94c0,0,10.49,1.53,17.78-5.92,0,0,7.56-5.83,7-18,0,0-1.76-14.55,8.41-22a24,24,0,0,1,19.17-4.33s6.86,1.73,10,5.36a20.9,20.9,0,0,0-14.13-14.93s-10.7-3.85-20.44,3.33c0,0-10.34,6.53-8.94,22.9,0,0,1.15,14.16-10.38,22.32a27.59,27.59,0,0,1-21.71,4.32S147,90.48,142.49,82c0,0,13-7.2,17.1-16.48,0,0,6.52-8,5.74-26.17,0,0-1-16.28-13.63-27.64C151.7,11.75,140.69-.07,121.38,0Z"/><path class="cls-2" d="M120.37,148.16c.16-.45-1.5-2.47-1.76-2.85a30.5,30.5,0,0,0-2.41-3,32.12,32.12,0,0,0-4.85-3.92,16.17,16.17,0,0,1-5.19-6.4,17.08,17.08,0,0,1-1.44-7.29,13.87,13.87,0,0,1,6.6-11.46c6-3.42,11.78-3.71,17.51.3a17.67,17.67,0,0,1,4.81,5.37,14.31,14.31,0,0,1,.91,11.79c-1.62,4.49-5.4,6.59-8.86,9.49A19.2,19.2,0,0,0,120.37,148.16Z"/><path class="cls-3" d="M132.43,179.14a21,21,0,0,1-6.11-7.71s-.18-.38-.42-1.06A94.35,94.35,0,0,1,164.25,33.24,43,43,0,0,0,151.7,11.75S140.69-.07,121.38,0A44.59,44.59,0,0,0,88.22,16S77.07,27.43,78.51,47.47a43.76,43.76,0,0,0,23.08,34.68S97.93,91.05,85.2,94.9c0,0-20.69,5.55-30.2-15.31,0,0-1.92-2.74-1.87-13.58,0,0,2-21.22-19.46-24.93,0,0-18.68-2.77-24.36,16.18a24,24,0,0,1,18.42-6.07,18.63,18.63,0,0,1,5.64,1.68c4.05,1.8,7.9,4.44,10.2,8.32,3,5,3.6,10,3.29,15.74,0,0-1,15,11.32,21.93a25.9,25.9,0,0,0,13.08,3.08,14.51,14.51,0,0,1,6.16.8,11,11,0,0,1,4.84,4s-7.7,7.51-21.41,5.47c-6.66-1-12.54-5.53-16.28-11-2.75-4-5.17-7.85-9.26-10.69a19.9,19.9,0,0,0-9.57-3.63A22.55,22.55,0,0,0,2.47,98.75s-4.62,7-1.23,17.23c0,0,2.25-13.11,15.65-17,0,0,12-3.42,21.12,4.78,2.92,3.05,4.76,6.61,7.34,9.88A23.47,23.47,0,0,0,55.47,121,24.15,24.15,0,0,0,65,122.59s-5,8.31-4.15,24.26c.25,4.71-.13,9.6-2.83,13.67-3,4.57-8.68,6.79-13.88,4.37A11.83,11.83,0,0,1,40,161.42,16.23,16.23,0,0,1,38,158a19.48,19.48,0,0,0-17-12.82s-12.66-1.09-19,10.76c0,0,8.17-6,19.22-.79a19.32,19.32,0,0,1,10,12.33s3.68,7.49,11.35,9.58c0,0,12.69,4.24,21.1-6.63,0,0,4.71-4.69,4.5-13.85,0,0-1.37-11.35,2.14-20.2a53.93,53.93,0,0,1,2.84-6.07,41,41,0,0,1,10.06-12.66c2.9-2.33,6.54-5.12,10.06-6.42a5.57,5.57,0,0,1,6.75,2c.06.1-1.8,3-2,3.3a19.39,19.39,0,0,0-1.45,4,22.15,22.15,0,0,0-.29,8.47c.74,4.48,2.86,9.3,6.4,12.27,1.81,1.51,4,2.42,5.79,4a22.64,22.64,0,0,1,4.57,5.65,23.36,23.36,0,0,1,2.39,6.2,21,21,0,0,1-4.1,17.32s-10,13.27-26.3,5.9c0,0-7.57-3.57-9-6,0,0,9.61,15.77,30.05,10.3,0,0,10.08-3.55,13.82-11.77a27.55,27.55,0,0,0,19.41,13.62A96.23,96.23,0,0,1,132.43,179.14Z"/><path class="cls-2" d="M120.37,148.16c.16-.45-1.5-2.47-1.76-2.85a30.5,30.5,0,0,0-2.41-3,32.12,32.12,0,0,0-4.85-3.92,16.17,16.17,0,0,1-5.19-6.4,17.08,17.08,0,0,1-1.44-7.29,13.87,13.87,0,0,1,6.6-11.46c6-3.42,11.78-3.71,17.51.3a17.67,17.67,0,0,1,4.81,5.37,14.31,14.31,0,0,1,.91,11.79c-1.62,4.49-5.4,6.59-8.86,9.49A19.2,19.2,0,0,0,120.37,148.16Z"/></g></g></svg>