<svg xmlns="http://www.w3.org/2000/svg" viewBox="0 0 169.74 183.16"><defs><style>.cls-1{fill:#36a9e1;}.cls-2{fill:#1d71b8;}</style></defs><title>raie</title><g id="Calque_2" data-name="Calque 2"><g id="Calque_1-2" data-name="Calque 1"><path class="cls-1" d="M166.49,141.77s4.4,22.8-21.55,37.79c0,0-19.85,10.19-39-3.75a39.58,39.58,0,0,1-15.53-34s1.57-26.25-23-38.06a40.07,40.07,0,0,0-39.21,3.9s-30.43,21.5-8.11,56c0,0-22.6-19.43-19.79-56.86,0,0,.75-23.53,22-44.42,0,0,12.87-12.78,2-29.14,0,0-6.94-8.74-.68-18.32,0,0,1-2.06,2.66-2a2.33,2.33,0,0,1,2.3,2.3,15.11,15.11,0,0,0,3.85,9.65s6.76,8,17,3.61a14.33,14.33,0,0,0,8.08-8.9S59.44,13.94,57,8.75c0,0-1.68-3.47-3.26-4.7a2.45,2.45,0,0,1-.47-2.91s.67-1.52,3.17-1a14.58,14.58,0,0,1,8.92,4.18,17.29,17.29,0,0,1,4.39,7.51s1.51,7.79,6.17,12.15A23.86,23.86,0,0,0,94.2,30.8s7.74-1.1,21.06,1.71a69.11,69.11,0,0,1,33.2,18.3s14.57,13.7,19.13,33a87.43,87.43,0,0,1,2.15,13.86s-3.39-20.91-21.57-29.16c0,0-10.3-6-25.56-3,0,0-20.66,3.41-28.76,26.09,0,0-4.93,11.93,1.23,27.54a38.65,38.65,0,0,1,4.67,17.11s-.68,9.37,1.77,16.28a32.86,32.86,0,0,0,16,18.81s16.24,9.4,33.19-1.06C150.71,170.26,166,162.06,166.49,141.77Z"/><path class="cls-2" d="M110.51,178.72a37,37,0,0,0,12.68,4.1A80.21,80.21,0,0,1,110.51,178.72Z"/><path class="cls-2" d="M105.56,31A51.71,51.71,0,0,0,94.2,30.8a23.86,23.86,0,0,1-18.32-6.87c-4.66-4.36-6.17-12.15-6.17-12.15a17.29,17.29,0,0,0-4.39-7.51A14.58,14.58,0,0,0,56.4.09c-2.5-.47-3.17,1-3.17,1a2.45,2.45,0,0,0,.47,2.91C55.28,5.28,57,8.75,57,8.75c2.48,5.19.56,10.82.56,10.82a14.33,14.33,0,0,1-8.08,8.9c-10.28,4.41-17-3.61-17-3.61a15.11,15.11,0,0,1-3.85-9.65,2.33,2.33,0,0,0-2.3-2.3c-1.66-.09-2.66,2-2.66,2-6.26,9.58.68,18.32.68,18.32,10.84,16.36-2,29.14-2,29.14C1,83.23.24,106.76.24,106.76-2.57,144.19,20,163.62,20,163.62c-22.32-34.51,8.11-56,8.11-56a39.93,39.93,0,0,1,32.46-6.19A81.28,81.28,0,0,1,105.56,31Z"/></g></g></svg>