<svg xmlns="http://www.w3.org/2000/svg" viewBox="0 0 172.53 186.6"><defs><style>.cls-1{fill:#b0b5dc;}.cls-2{fill:#2d2e83;}</style></defs><title>Fichier 8</title><g id="Calque_2" data-name="Calque 2"><g id="Calque_1-2" data-name="Calque 1"><path class="cls-1" d="M1.27,106.67s-11.3-45,33.48-85.92c0,0-12-6.79-26.37-7.18,0,0,18.31-15,44.28-4.28,0,0,25.41-14.07,59.54-7.58,0,0-3.19,30-33.44,40.81,0,0,4.48,20.4-9.75,37,0,0,.91-15.38-4.64-26.07,0,0-10.26,7.58-16.25,14.4,0,0,2.65,11.27.67,20.5,0,0-5.26-5.75-10.82-8.25A143,143,0,0,0,25.5,101.59s21.7,5.68,32.64,25.48c0,0-14.68-7.93-35.32-4.15,0,0-4.32,2-6.21,5l-.06.1"/><path class="cls-2" d="M22,124.78c-.06-1.63-.11-3.27-.11-4.92A122.88,122.88,0,0,1,111.47,1.58C77.71-4.57,52.66,9.29,52.66,9.29c-26-10.74-44.28,4.28-44.28,4.28,14.35.39,26.37,7.18,26.37,7.18C-10,61.63,1.27,106.67,1.27,106.67S6.47,138.26,24,155.29c0,0,21.22,25.85,55.46,30.09,0,0,35.2,7.27,64.55-13.73,0,0,20.71-13.45,28.51-28.76,0,0-29.62,38.8-82.42,31.74C90.11,174.63,47.37,171.88,22,124.78Z"/></g></g></svg>