<?xml version="1.0" encoding="utf-8"?>
<!-- Generator: Adobe Illustrator 19.0.0, SVG Export Plug-In . SVG Version: 6.00 Build 0)  -->
<svg version="1.1" id="Calque_1" xmlns="http://www.w3.org/2000/svg" xmlns:xlink="http://www.w3.org/1999/xlink" x="0px" y="0px"
	 viewBox="0 0 288 152.8" style="enable-background:new 0 0 288 152.8;" xml:space="preserve">
<style type="text/css">
	.st0{fill:#8E8E88;}
	.st1{fill:#7C7C7A;}
</style>
<path id="XMLID_1_" class="st0" d="M0,119.5c0,0,125,75,288,0C273,56.5,120-114.5,0,119.5z"/>
<path id="XMLID_3_" class="st1" d="M88.5,55c0,0,37-24,46,0s-46,19-46,19S73,72,88.5,55z"/>
<path id="XMLID_2_" class="st1" d="M31.4,106.6c0,0,52.1-26.9,93.5,25.1C143.9,155.4,1.1,119.7,31.4,106.6z"/>
<path id="XMLID_4_" class="st1" d="M235.7,120.7c0,0-41.3,15.4-44.9-10c-3.6-25.4,49-8.6,49-8.6S254.5,107.4,235.7,120.7z"/>
<path id="XMLID_5_" class="st1" d="M226.9,59.5c0,0-32.4,48.8-93.9,23.5C104.9,71.5,247,33.4,226.9,59.5z"/>
</svg>
