<?xml version="1.0" encoding="utf-8"?>
<!-- Generator: Adobe Illustrator 19.0.0, SVG Export Plug-In . SVG Version: 6.00 Build 0)  -->
<svg version="1.1" id="Calque_1" xmlns="http://www.w3.org/2000/svg" xmlns:xlink="http://www.w3.org/1999/xlink" x="0px" y="0px"
	 viewBox="0 0 364.6 535.5" style="enable-background:new 0 0 364.6 535.5;" xml:space="preserve">
<style type="text/css">
	.st0{fill:#8E8E88;}
	.st1{fill:#7C7C7A;}
</style>
<path id="XMLID_1_" class="st0" d="M0,0c0,0,116,92,250,89s68,164,68,164s-42,74-4,112s81,170,20.3,170C223.4,535,0,535.5,0,535.5V0
	z"/>
<path id="XMLID_3_" class="st1" d="M88,108c0,0,124,41,190,21s-14,110-44,132S59,160,88,108z"/>
<path id="XMLID_2_" class="st1" d="M56,248c0,0,165,46,99,70S29.9,240,56,248z"/>
<path id="XMLID_5_" class="st1" d="M141,456c0,0-35-33,132-69c62,65,24.6,127,24.6,127S144,548,141,456z"/>
<path id="XMLID_4_" class="st1" d="M49.7,416c0,0,116.3-75,99.3-41S63.4,452,49.7,416z"/>
</svg>
