<?xml version="1.0" encoding="utf-8"?>
<!-- Generator: Adobe Illustrator 19.0.0, SVG Export Plug-In . SVG Version: 6.00 Build 0)  -->
<svg version="1.1" id="Calque_1" xmlns="http://www.w3.org/2000/svg" xmlns:xlink="http://www.w3.org/1999/xlink" x="0px" y="0px"
	 viewBox="0 0 595.3 187.8" style="enable-background:new 0 0 595.3 187.8;" xml:space="preserve">
<style type="text/css">
	.st0{fill:#FFDF97;}
	.st1{fill:#E8C47C;}
</style>
<path id="XMLID_1_" class="st0" d="M595.3,187.8H0v-166h66c8.6,0,17.2-0.9,25.7-2.6l59.5-12.1c40.2-8.2,81.5-9.3,122.1-3.5
	l103.1,14.9c15,2.2,30.2,3.3,45.4,3.3l36,7.1c42.8,8.5,87.1,6.8,129.2-4.8l8.3-2.3V187.8z"/>
<path id="XMLID_2_" class="st1" d="M55,65.8c0,0,118-38,227-8S149,73.8,55,65.8z"/>
<path id="XMLID_3_" class="st1" d="M430,107.8c0,0,96.7-33,131,0S404,125.8,430,107.8z"/>
<path id="XMLID_4_" class="st1" d="M169,139.8c72.3-14.6,211-10,151,0S159.4,141.7,169,139.8z"/>
</svg>
