<svg xmlns="http://www.w3.org/2000/svg" viewBox="0 0 178.56 184"><defs><style>.cls-1{fill:#063;}.cls-2{fill:#95c11f;}</style></defs><title>Fichier 2</title><g id="Calque_2" data-name="Calque 2"><g id="Calque_1-2" data-name="Calque 1"><path class="cls-1" d="M88.45,0s-18.16,3-18,24.54a25,25,0,0,0,8.69,16.38,58.17,58.17,0,0,0-11.66,6.14S55.74,34.72,32.61,38.92A43.32,43.32,0,0,0,4.82,60S-2.54,71.2.93,88.61c0,0,2.92-7.89,11.84-14.71a36.42,36.42,0,0,1,32.65-5.23s-6.34,9.57-8.54,17c0,0-7.92,17.84-2.09,41.89,0,0-8.35,4.8-11.86,17.12,0,0-6.08,20.06,11.38,33.62,0,0-5.14-17.25,8.91-29.16,0,0,13.72,26.7,45.53,34.81,0,0,29.79-5.86,46.64-36.75a27.36,27.36,0,0,1,10.17,30.16,31.39,31.39,0,0,0,11.91-31.35s-2.21-13.51-14.15-20.85c0,0,2.61-7.51.44-26.23a71.67,71.67,0,0,0-12.44-31.12S160.2,54.14,178,83.15a41.27,41.27,0,0,0-10.63-34.81s-16.63-18.78-42.55-11.48a48.27,48.27,0,0,0-16.11,9.25,118.44,118.44,0,0,0-10.81-5.29s10.82-8.65,8.23-22C106.14,18.84,103.61,3.32,88.45,0Z"/><path class="cls-2" d="M75.74,139.78A84.88,84.88,0,0,1,160.62,54.9a85.74,85.74,0,0,1,12.28.89,43.06,43.06,0,0,0-5.52-7.45s-16.63-18.78-42.55-11.48a48.27,48.27,0,0,0-16.11,9.25,118.44,118.44,0,0,0-10.81-5.29s10.82-8.65,8.23-22c0,0-2.53-15.52-17.69-18.84,0,0-18.16,3-18,24.54a25,25,0,0,0,8.69,16.38,58.17,58.17,0,0,0-11.66,6.14S55.74,34.72,32.61,38.92A43.32,43.32,0,0,0,4.82,60S-2.54,71.2.93,88.61c0,0,2.92-7.89,11.84-14.71a36.42,36.42,0,0,1,32.65-5.23s-6.34,9.57-8.54,17c0,0-7.92,17.84-2.09,41.89,0,0-8.35,4.8-11.86,17.12,0,0-6.08,20.06,11.38,33.62,0,0-5.14-17.25,8.91-29.16,0,0,13.51,26.3,44.81,34.62A84.53,84.53,0,0,1,75.74,139.78Z"/></g></g></svg>